# AST/ASF file generated using VICON BodyLanguage
# -----------------------------------------------
:version 1.10
:name VICON
:units
  mass 1.0
  length 0.45
  angle deg
:documentation
   .ast/.asf automatically generated from VICON data using
   VICON BodyBuilder and BodyLanguage model FoxedUp or BRILLIANT.MOD
:root
   order TX TY TZ RX RY RZ
   axis XYZ
   position 0 0 0  
   orientation 0 -0 0 
:bonedata
  begin
     id 1 
     name lhipjoint
     direction 0.515797 -0.759363 0.396637 
     length 2.47888 
     axis 0 -0 0  XYZ
  end
  begin
     id 2 
     name lfemur
     direction 0.34202 -0.939693 0  
     length 6.81885  
     axis 0 -0 20  XYZ
    dof rx ry rz
    limits (-160.0 20.0)
           (-70.0 70.0)
           (-60.0 70.0)
  end
  begin
     id 3 
     name ltibia
     direction 0.342037 -0.939687 0   
     length 7.89258   
     axis 0 -0 20   XYZ
    dof rx
    limits (-10.0 170.0)
  end
  begin
     id 4 
     name lfoot
     direction 0.173497 -0.476678 0.861787   
     length 2.51543   
     axis -90 -1.13533e-015 20   XYZ
    dof rx rz
    limits (-45.0 90.0)
           (-70.0 20.0)
  end
  begin
     id 5 
     name ltoes
     direction 1.53564e-011 -4.21897e-011 1   
     length 1.21388   
     axis -90 -1.13533e-015 20   XYZ
    dof rx
    limits (-90.0 20.0)
  end
  begin
     id 6 
     name rhipjoint
     direction -0.489454 -0.772941 0.403729   
     length 2.43534  
     axis 0 -0 0  XYZ 
  end
  begin
     id 7 
     name rfemur
     direction -0.34202 -0.939693 0   
     length 7.10357   
     axis 0 -0 -20   XYZ
    dof rx ry rz
    limits (-160.0 20.0)
           (-70.0 70.0)
           (-70.0 60.0)
  end
  begin
     id 8 
     name rtibia
     direction -0.34202 -0.939693 0   
     length 9.16127   
     axis 0 -0 -20   XYZ
    dof rx
    limits (-10.0 170.0)
 end
 begin
     id 9 
     name rfoot
     direction -0.270974 -0.748671 0.605033   
     length 1.74894  
     axis -90 1.13533e-015 -20   XYZ
    dof rx rz
    limits (-45.0 90.0)
           (-20.0 70.0)
  end
  begin
     id 10 
     name rtoes
     direction -1.53557e-011 -4.21759e-011 1   
     length 0.787585   
     axis -90 1.13533e-015 -20   XYZ
    dof rx
    limits (-90.0 20.0)
  end
  begin
     id 11 
     name lowerback
     direction -0.0140249 0.999561 0.0260968   
     length 2.16963   
     axis 0 -0 0   XYZ
    dof rx ry rz
    limits (-20.0 45.0)
           (-30.0 30.0)
           (-30.0 30.0)
  end
  begin
     id 12 
     name upperback
     direction 0.00860018 0.999959 -0.002711   
     length 2.1726   
     axis 0 -0 0   XYZ
    dof rx ry rz
    limits (-20.0 45.0)
           (-30.0 30.0)
           (-30.0 30.0)
  end
  begin
     id 13 
     name thorax
     direction 0.015211 0.999782 -0.0143191   
     length 2.17061   
     axis 0 -0 0   XYZ
    dof rx ry rz
    limits (-20.0 45.0)
           (-30.0 30.0)
           (-30.0 30.0)
  end
  begin
     id 14 
     name lowerneck
     direction -0.0140143 0.999447 0.030145   
     length 2.26749   
     axis 0 -0 0   XYZ
    dof rx ry rz
    limits (-20.0 45.0)
           (-30.0 30.0)
           (-30.0 30.0)
  end
  begin
     id 15 
     name upperneck
     direction 0.118062 0.961438 -0.248392   
     length 2.22728   
     axis 0 -0 0   XYZ
    dof rx ry rz
    limits (-20.0 45.0)
           (-30.0 30.0)
           (-30.0 30.0)
  end
  begin
     id 16
     name head
     direction 0.0431885 0.9954 -0.085514  
     length 2.28786  
     axis 0 -0 0   XYZ
    dof rx ry rz
    limits (-20.0 45.0)
           (-30.0 30.0)
           (-30.0 30.0)
  end
  begin
     id 17 
     name lclavicle
     direction 0.912126 0.409548 0.0172323  
     length 4.31571  
     axis 0 -0 0   XYZ
    dof ry rz
    limits (-20.0 10.0)
           (0.0 20.0)
  end
  begin
     id 18 
     name lhumerus
     direction 1 -4.48977e-011 1.93091e-027   
     length 5.13658   
     axis 180 -30 -90   XYZ
    dof rx ry rz
    limits (-60.0 90.0)
           (-90.0 90.0)
           (-90.0 90.0)
  end
  begin
     id 19
     name lradius
     direction 1 -4.48916e-011 6.84018e-027   
     length 3.22473   
     axis 180 -30 -90   XYZ
    dof rx
    limits (-10.0 170.0)
  end
  begin
     id 20
     name lwrist
     direction 1 -4.48987e-011 7.01981e-027   
     length 1.61236   
     axis -4.37994e-015 90 90   XYZ
    dof ry
    limits (-180.0 0.0)
 end
  begin
     id 21 
     name lhand
     direction 1 -4.49037e-011 1.40335e-026   
     length 0.936406   
     axis -8.96029e-015 90 90   XYZ
    dof rx rz
    limits (-90.0 90.0)
           (-45.0 45.0)
  end
  begin
     id 22 
     name lfingers
     direction 1 -4.48886e-011 2.8104e-026   
     length 0.754955   
     axis -1.79203e-014 90 90   XYZ
    dof rx
    limits (0.0 90.0)
  end
  begin
     id 23
     name lthumb
     direction 0.707107 -6.34937e-011 0.707107   
     length 1.08397   
     axis -90 45 -4.48555e-014   XYZ
    dof rx rz
    limits (-45.0 45.0)
           (-45.0 45.0)
  end
  begin
     id 24 
     name rclavicle
     direction -0.947962 0.317997 0.0156638   
     length 4.86918  
     axis 0 -0 0   XYZ 
    dof ry rz
    limits (-10.0 20.0)
           (-20.0 0.0)
  end
  begin
     id 25 
     name rhumerus
     direction -1 -4.48951e-011 2.80534e-018  
     length 5.60911   
     axis 180 30 90   XYZ
    dof rx ry rz
    limits (-90.0 60.0)
           (-90.0 90.0)
           (-90.0 90.0)
  end
  begin
     id 26 
     name rradius
     direction -1 -4.4898e-011 2.11315e-027   
     length 3.38704   
     axis 180 30 90   XYZ
    dof rx
    limits (-10.0 170.0)
  end
  begin
     id 27 
     name rwrist
     direction -1 -4.48933e-011 7.02314e-027   
     length 1.69352   
     axis -4.37994e-015 -90 -90   XYZ
    dof ry
    limits (-180.0 0.0)
  end
  begin
     id 28
     name rhand
     direction -1 -4.48937e-011 1.40458e-026   
     length 0.755878   
     axis -8.96029e-015 -90 -90   XYZ
    dof rx rz
    limits (-90.0 90.0)
           (-45.0 45.0)
  end
  begin
     id 29
     name rfingers
     direction -1 -4.4901e-011 2.80737e-026   
     length 0.609409   
     axis -1.79203e-014 -90 -90   XYZ
    dof rx
    limits (0.0 90.0)
  end
  begin
     id 30
     name rthumb
     direction -0.707107 -6.34968e-011 0.707107   
     length 0.874992   
     axis -90 -45 4.48555e-014   XYZ
    dof rx rz
    limits (-45.0 45.0)
           (-45.0 45.0)
  end
:hierarchy
  begin
    root lhipjoint rhipjoint lowerback
    lhipjoint lfemur
    lfemur ltibia
    ltibia lfoot
    lfoot ltoes
    rhipjoint rfemur
    rfemur rtibia
    rtibia rfoot
    rfoot rtoes
    lowerback upperback
    upperback thorax
    thorax lowerneck lclavicle rclavicle
    lowerneck upperneck
    upperneck head
    lclavicle lhumerus
    lhumerus lradius
    lradius lwrist
    lwrist lhand lthumb
    lhand lfingers
    rclavicle rhumerus
    rhumerus rradius
    rradius rwrist
    rwrist rhand rthumb
    rhand rfingers
  end

#!OML:ASF C:\ViconDB\ViconDB\414\Spring2016\041811\Spring2016.ASF
:FULLY-SPECIFIED
:DEGREES
87
root 9.19063 19.0606 -9.35597 -2.47963 68.4626 356.775
lowerback 4.08883 -4.28104 -6.51073
upperback -0.630445 -6.03441 -0.210968
thorax -2.29359 -2.91726 3.7379
lowerneck -17.9218 -4.07542 -13.2511
upperneck 25.8444 -6.55622 17.4965
head 12.6249 -1.99617 8.13032
rclavicle -1.89081e-014 -1.51076e-014
rhumerus -44.6708 -17.2686 -1.42988
rradius 35.2609
rwrist 32.0157
rhand -31.975 -15.7843
rfingers 7.12502
rthumb -5.22463 -45.6999
lclavicle -1.89081e-014 -1.51076e-014
lhumerus -23.9761 -5.04052 9.81969
lradius 35.7415
lwrist -17.36
lhand -29.6805 17.1142
lfingers 7.12502
lthumb -3.00892 47.0728
rfemur 161.672 26.069 187.31
rtibia 33.9476
rfoot -73.4134 -69.7138
rtoes 17.3322
lfemur -11.3964 3.44266 -1.97586
ltibia 39.0723
lfoot -18.6734 3.34294
ltoes -14.787
88
root 9.20859 19.1195 -9.3925 -1.29848 66.1692 357.415
lowerback 3.63064 -4.45522 -6.53874
upperback -0.713313 -6.23746 -0.304621
thorax -2.10815 -3.02326 3.62618
lowerneck -18.1261 -4.14128 -12.7015
upperneck 25.9794 -6.72637 17.1008
head 12.7175 -2.05963 7.84081
rclavicle 6.4268e-014 0
rhumerus -46.0451 -17.7847 -0.766718
rradius 35.0449
rwrist 32.9273
rhand -32.0087 -13.3806
rfingers 7.12502
rthumb -5.25711 -43.2954
lclavicle 6.4268e-014 0
lhumerus -23.6447 -5.47166 9.71622
lradius 35.626
lwrist -16.3586
lhand -29.6002 17.3982
lfingers 7.12502
lthumb -2.93136 47.3578
rfemur 163.752 28.345 187.793
rtibia 32.7555
rfoot -82.948 -68.744
rtoes 18.9728
lfemur -11.0801 0.244538 -2.36294
ltibia 36.9135
lfoot -20.1009 3.10291
ltoes -13.9431
89
root 9.22618 19.1788 -9.43919 0.52633 63.8053 358.717
lowerback 3.24271 -4.61576 -7.04457
upperback -0.933372 -6.45093 -0.328771
thorax -2.04518 -3.11955 3.85826
lowerneck -17.8947 -4.12765 -12.9713
upperneck 25.7941 -6.77036 17.554
head 12.6349 -2.07011 8.06042
rclavicle -2.69338e-014 3.26007e-014
rhumerus -47.0202 -17.3581 -0.58721
rradius 35.1478
rwrist 32.3797
rhand -31.7729 -13.2363
rfingers 7.12502
rthumb -5.02949 -43.1566
lclavicle -2.69338e-014 3.26007e-014
lhumerus -23.5603 -5.70436 9.80006
lradius 35.2733
lwrist -16.3779
lhand -29.3567 16.9694
lfingers 7.12502
lthumb -2.69616 46.9321
rfemur 165.991 31.3069 188.113
rtibia 31.6092
rfoot -92.8808 -67.211
rtoes 20.6771
lfemur -11.0178 -2.98231 -3.19911
ltibia 35.1461
lfoot -20.7534 3.14827
ltoes -14.6113
90
root 9.24081 19.2337 -9.48969 1.45659 61.3209 359.105
lowerback 3.09195 -4.73644 -7.30528
upperback -1.21153 -6.61998 -0.178757
thorax -2.1844 -3.18722 4.15902
lowerneck -17.897 -4.14349 -13.1789
upperneck 25.8866 -6.76965 17.6019
head 12.6821 -2.09207 8.12731
rclavicle 3.66688e-014 4.77083e-015
rhumerus -47.8723 -17.4829 0.0770344
rradius 35.1952
rwrist 31.8311
rhand -30.9002 -14.734
rfingers 7.12502
rthumb -4.18675 -44.6726
lclavicle 3.66688e-014 4.77083e-015
lhumerus -23.4402 -5.90397 9.97572
lradius 34.5987
lwrist -17.6543
lhand -29.2362 17.0233
lfingers 7.12502
lthumb -2.57984 46.9875
rfemur 168.313 34.1374 189.048
rtibia 30.6023
rfoot -101.14 -65.1727
rtoes 21.3216
lfemur -11.0577 -5.80559 -3.66764
ltibia 33.7521
lfoot -21.8115 2.69437
ltoes -15.659
91
root 9.2654 19.2743 -9.54421 1.7296 58.857 359.065
lowerback 3.03672 -4.88219 -7.35942
upperback -1.33669 -6.81432 0.0295132
thorax -2.22862 -3.27813 4.40762
lowerneck -18.0935 -4.27781 -12.7446
upperneck 26.2015 -6.87935 16.7038
head 12.811 -2.20037 7.66588
rclavicle 9.70287e-014 0
rhumerus -48.566 -18.0799 1.06424
rradius 34.8086
rwrist 32.8528
rhand -30.8741 -14.2265
rfingers 7.12502
rthumb -4.16155 -44.1656
lclavicle 9.70287e-014 0
lhumerus -23.5899 -5.76369 10.066
lradius 34.5534
lwrist -18.0833
lhand -28.4222 16.9702
lfingers 7.12502
lthumb -1.7937 46.9424
rfemur 170.337 38.5353 190.34
rtibia 29.7215
rfoot -110.472 -62.6024
rtoes 23.6667
lfemur -11.0837 -8.6037 -3.92237
ltibia 32.7826
lfoot -22.6128 1.64921
ltoes -15.4167
92
root 9.29141 19.3073 -9.60359 2.23667 56.2108 358.974
lowerback 2.55397 -5.01815 -7.27505
upperback -1.40488 -6.95213 0.159823
thorax -2.00475 -3.35588 4.45177
lowerneck -18.5022 -4.36828 -12.9346
upperneck 26.4504 -7.03564 16.9704
head 13.0536 -2.2486 7.81596
rclavicle 1.68905e-014 5.56597e-015
rhumerus -49.1363 -18.0839 1.45877
rradius 34.5296
rwrist 33.1031
rhand -30.7221 -13.7731
rfingers 7.12502
rthumb -4.0148 -43.715
lclavicle 1.68905e-014 5.56597e-015
lhumerus -23.4233 -5.90313 9.92181
lradius 34.4307
lwrist -16.548
lhand -28.0299 16.5384
lfingers 7.12502
lthumb -1.41481 46.5134
rfemur 172.949 43.2246 192.314
rtibia 29.0568
rfoot -118.366 -59.7533
rtoes 25.6523
lfemur -11.4765 -10.8217 -4.1999
ltibia 32.0836
lfoot -22.7431 0.332293
ltoes -16.0134
93
root 9.32209 19.3213 -9.65876 2.79305 53.3012 359.02
lowerback 2.15107 -4.99865 -7.47763
upperback -1.50043 -6.8989 0.435054
thorax -1.82845 -3.33087 4.80892
lowerneck -18.8465 -4.46972 -13.1665
upperneck 26.5787 -7.11801 17.0092
head 13.2095 -2.29934 7.87664
rclavicle 1.38808e-013 1.90833e-014
rhumerus -49.5774 -18.7207 2.61071
rradius 34.0259
rwrist 34.1382
rhand -30.3406 -13.7242
rfingers 7.12502
rthumb -3.64642 -43.6728
lclavicle 1.38808e-013 1.90833e-014
lhumerus -23.2588 -6.00908 9.92092
lradius 34.1273
lwrist -16.6623
lhand -27.8478 16.2493
lfingers 7.12502
lthumb -1.2389 46.2255
rfemur 175.721 47.5955 194.575
rtibia 28.609
rfoot -124.851 -58.0735
rtoes 29.0934
lfemur -11.8087 -12.364 -4.65001
ltibia 31.5311
lfoot -22.5322 -1.46052
ltoes -16.6772
94
root 9.34943 19.329 -9.71131 3.26686 50.4849 359.148
lowerback 1.71482 -5.06598 -7.74598
upperback -1.44152 -6.95356 0.67166
thorax -1.45552 -3.37222 5.14972
lowerneck -19.2409 -4.54563 -13.4526
upperneck 26.5967 -7.17156 17.2028
head 13.3366 -2.32363 8.01213
rclavicle 6.65121e-014 2.26615e-014
rhumerus -49.7263 -18.9529 3.38292
rradius 33.6175
rwrist 34.4392
rhand -30.0241 -13.8939
rfingers 7.12502
rthumb -3.34072 -43.8475
lclavicle 6.65121e-014 2.26615e-014
lhumerus -23.2322 -6.44133 9.86909
lradius 34.1405
lwrist -16.4895
lhand -27.1921 17.1094
lfingers 7.12502
lthumb -0.605638 47.0882
rfemur 178.219 51.2375 196.737
rtibia 28.4865
rfoot -128.522 -57.6049
rtoes 31.4853
lfemur -11.9595 -13.2157 -5.16916
ltibia 30.7976
lfoot -22.1406 -4.20144
ltoes -17.5204
95
root 9.35383 19.34 -9.77514 3.0937 47.5854 358.481
lowerback 1.6952 -5.07855 -7.54923
upperback -1.46489 -6.96113 1.03064
thorax -1.44556 -3.37877 5.41182
lowerneck -19.5215 -4.57309 -13.63
upperneck 26.5039 -7.19056 17.4073
head 13.382 -2.3236 8.12717
rclavicle 1.2588e-013 1.23246e-014
rhumerus -49.9036 -19.4425 4.45599
rradius 33.0656
rwrist 35.4494
rhand -30.2232 -13.0747
rfingers 7.12502
rthumb -3.53298 -43.0252
lclavicle 1.2588e-013 1.23246e-014
lhumerus -23.0786 -6.74317 9.56535
lradius 34.1771
lwrist -15.8117
lhand -26.6665 17.6848
lfingers 7.12502
lthumb -0.0979433 47.6645
rfemur 180.153 52.1679 198.746
rtibia 28.6487
rfoot -126.301 -58.7194
rtoes 29.8039
lfemur -12.017 -13.1717 -5.05439
ltibia 29.7786
lfoot -21.0952 -7.76489
ltoes -17.9863
96
root 9.37899 19.3551 -9.82602 3.53237 44.698 358.829
lowerback 1.23244 -5.11512 -7.82133
upperback -1.25716 -6.96927 1.0655
thorax -0.93366 -3.40841 5.53506
lowerneck -19.7726 -4.57285 -13.4663
upperneck 26.2836 -7.22475 17.4554
head 13.3481 -2.31315 8.09363
rclavicle -1.77192e-013 -1.82882e-014
rhumerus -49.9367 -19.6629 5.23502
rradius 32.447
rwrist 35.9658
rhand -29.5457 -12.841
rfingers 7.12502
rthumb -2.87875 -42.8013
lclavicle -1.77192e-013 -1.82882e-014
lhumerus -22.6336 -6.72312 8.83761
lradius 34.0206
lwrist -15.2927
lhand -26.3369 17.4273
lfingers 7.12502
lthumb 0.220359 47.407
rfemur 181.011 52.1793 198.901
rtibia 29.0631
rfoot -121.077 -60.1754
rtoes 27.6875
lfemur -11.5788 -12.8937 -5.87481
ltibia 28.3688
lfoot -19.5513 -11.189
ltoes -19.0594
97
root 9.40321 19.3684 -9.89866 4.59916 41.6837 359.746
lowerback 0.576591 -5.11462 -8.3196
upperback -1.05579 -6.91029 0.885479
thorax -0.331481 -3.40686 5.54281
lowerneck -20.245 -4.51724 -12.8214
upperneck 26.0097 -7.18709 17.0899
head 13.2812 -2.26097 7.79781
rclavicle 2.29721e-014 1.55052e-014
rhumerus -50.2465 -20.354 6.25795
rradius 32.0452
rwrist 36.5427
rhand -29.7879 -13.1616
rfingers 7.12502
rthumb -3.11267 -43.1187
lclavicle 2.29721e-014 1.55052e-014
lhumerus -21.9417 -6.97452 8.0442
lradius 35.0946
lwrist -10.1901
lhand -24.7048 18.6301
lfingers 7.12502
lthumb 1.79667 48.6023
rfemur 181.646 50.7085 197.999
rtibia 29.613
rfoot -112.675 -61.6557
rtoes 25.0704
lfemur -11.2754 -12.2253 -7.25533
ltibia 26.6279
lfoot -17.1904 -13.9266
ltoes -20.3308
98
root 9.43092 19.3753 -9.97247 5.20977 38.7161 360.247
lowerback 0.331074 -5.15412 -8.52051
upperback -1.15229 -6.94587 0.90858
thorax -0.263191 -3.42335 5.65632
lowerneck -20.2923 -4.46662 -13.2911
upperneck 25.9307 -7.10327 17.5987
head 13.2893 -2.21709 8.11821
rclavicle 6.65929e-015 7.95139e-016
rhumerus -49.9261 -20.6364 7.46621
rradius 31.3712
rwrist 37.2581
rhand -29.781 -13.0916
rfingers 7.12502
rthumb -3.106 -43.0487
lclavicle 6.65929e-015 7.95139e-016
lhumerus -21.6022 -7.80703 7.69063
lradius 35.9751
lwrist -7.62152
lhand -24.1946 22.231
lfingers 7.12502
lthumb 2.28939 52.1985
rfemur 181.269 47.8785 196.249
rtibia 30.1785
rfoot -101.921 -62.8203
rtoes 23.0701
lfemur -10.7001 -11.606 -8.35845
ltibia 24.6887
lfoot -14.3083 -15.8863
ltoes -20.8883
